# xmcd CD database file
#
# Track frame offsets:
#	150
#	16350
#	33585
#	46705
#	61932
#	81022
#	98145
#	119800
#	134382
#	152855
#	171325
#	188312
#	205917
#	220427
#	234117
#
# Disc length: 3455 seconds
#
# Revision: 0
# Processed by: cddbd v1.5.2PL0 Copyright (c) Steve Scherf et al.
# Submitted via: CDex 1.70beta2
#
DISCID=c70d7d0f
DTITLE=Sarah Vaughan - Selection originally issued on Roulette Jazz
DYEAR=1995
DGENRE=Jazz
TTITLE0='round midnight
TTITLE1=Solitude
TTITLE2=I'll be seeing you
TTITLE3=I fall in love too easily
TTITLE4=Glad to be unhappy
TTITLE5=Apeing can really hang you up the most
TTITLE6=I remember you
TTITLE7=Maria
TTITLE8=Lonely hours
TTITLE9=The man I love
TTITLE10=I'll never be the same
TTITLE11=If I had you
TTITLE12=All or nothing at all
TTITLE13=Always on my mind
TTITLE14=Midnight sun
EXTD=YEAR: 1995
EXTT0=
EXTT1=
EXTT2=
EXTT3=
EXTT4=
EXTT5=
EXTT6=
EXTT7=
EXTT8=
EXTT9=
EXTT10=
EXTT11=
EXTT12=
EXTT13=
EXTT14=
PLAYORDER=
